<svg id="visual" viewBox="0 0 900 675" width="900" height="675" xmlns="http://www.w3.org/2000/svg" xmlns:xlink="http://www.w3.org/1999/xlink" version="1.1"><path d="M0 410L21.5 398.7C43 387.3 86 364.7 128.8 364C171.7 363.3 214.3 384.7 257.2 382.2C300 379.7 343 353.3 385.8 346.7C428.7 340 471.3 353 514.2 361.3C557 369.7 600 373.3 642.8 384.3C685.7 395.3 728.3 413.7 771.2 413.7C814 413.7 857 395.3 878.5 386.2L900 377L900 676L878.5 676C857 676 814 676 771.2 676C728.3 676 685.7 676 642.8 676C600 676 557 676 514.2 676C471.3 676 428.7 676 385.8 676C343 676 300 676 257.2 676C214.3 676 171.7 676 128.8 676C86 676 43 676 21.5 676L0 676Z" fill="#dadada"></path><path d="M0 387L21.5 395.5C43 404 86 421 128.8 423.8C171.7 426.7 214.3 415.3 257.2 422.2C300 429 343 454 385.8 448.7C428.7 443.3 471.3 407.7 514.2 400.3C557 393 600 414 642.8 422.3C685.7 430.7 728.3 426.3 771.2 414.5C814 402.7 857 383.3 878.5 373.7L900 364L900 676L878.5 676C857 676 814 676 771.2 676C728.3 676 685.7 676 642.8 676C600 676 557 676 514.2 676C471.3 676 428.7 676 385.8 676C343 676 300 676 257.2 676C214.3 676 171.7 676 128.8 676C86 676 43 676 21.5 676L0 676Z" fill="#c4c4c4"></path><path d="M0 506L21.5 495.5C43 485 86 464 128.8 450.7C171.7 437.3 214.3 431.7 257.2 431.5C300 431.3 343 436.7 385.8 438.8C428.7 441 471.3 440 514.2 445.5C557 451 600 463 642.8 471.5C685.7 480 728.3 485 771.2 495C814 505 857 520 878.5 527.5L900 535L900 676L878.5 676C857 676 814 676 771.2 676C728.3 676 685.7 676 642.8 676C600 676 557 676 514.2 676C471.3 676 428.7 676 385.8 676C343 676 300 676 257.2 676C214.3 676 171.7 676 128.8 676C86 676 43 676 21.5 676L0 676Z" fill="#aeaeae"></path><path d="M0 506L21.5 510.3C43 514.7 86 523.3 128.8 526.5C171.7 529.7 214.3 527.3 257.2 520.8C300 514.3 343 503.7 385.8 508.5C428.7 513.3 471.3 533.7 514.2 547.2C557 560.7 600 567.3 642.8 571.2C685.7 575 728.3 576 771.2 570.2C814 564.3 857 551.7 878.5 545.3L900 539L900 676L878.5 676C857 676 814 676 771.2 676C728.3 676 685.7 676 642.8 676C600 676 557 676 514.2 676C471.3 676 428.7 676 385.8 676C343 676 300 676 257.2 676C214.3 676 171.7 676 128.8 676C86 676 43 676 21.5 676L0 676Z" fill="#999999"></path><path d="M0 607L21.5 603.8C43 600.7 86 594.3 128.8 592C171.7 589.7 214.3 591.3 257.2 589.3C300 587.3 343 581.7 385.8 578.3C428.7 575 471.3 574 514.2 583.3C557 592.7 600 612.3 642.8 619.5C685.7 626.7 728.3 621.3 771.2 612.8C814 604.3 857 592.7 878.5 586.8L900 581L900 676L878.5 676C857 676 814 676 771.2 676C728.3 676 685.7 676 642.8 676C600 676 557 676 514.2 676C471.3 676 428.7 676 385.8 676C343 676 300 676 257.2 676C214.3 676 171.7 676 128.8 676C86 676 43 676 21.5 676L0 676Z" fill="#848484"></path></svg>